<svg class="tab tab--active" data-tab="0" width="272" height="258" viewBox="0 0 272 258" fill="none" xmlns="http://www.w3.org/2000/svg">
	<path d="M80 209.5L82.8868 204.5L77.1133 204.5L80 209.5ZM80 49.5L77.1132 54.5L82.8868 54.5L80 49.5ZM80.5 205L80.5 54L79.5 54L79.5 205L80.5 205Z" fill="#A78BFA" />
	<path d="M56 185.5L61 188.387V182.613L56 185.5ZM216 185.5L211 182.613V188.387L216 185.5ZM60.5 186H211.5V185H60.5V186Z" fill="#A78BFA" />
	<path d="M89.4389 67.3636C89.2169 67.3636 89.0147 67.3454 88.8324 67.3089C88.6501 67.2758 88.5142 67.2393 88.4247 67.1996L88.7827 65.9815C89.0545 66.0545 89.2964 66.0859 89.5085 66.076C89.7206 66.0661 89.9079 65.9865 90.0703 65.8374C90.236 65.6882 90.3819 65.4446 90.5078 65.1065L90.6918 64.5994L87.8977 56.8636H89.4886L91.4226 62.7898H91.5021L93.4361 56.8636H95.032L91.8849 65.5192C91.7391 65.9169 91.5535 66.2533 91.3281 66.5284C91.1027 66.8068 90.8343 67.0156 90.5227 67.1548C90.2112 67.294 89.8499 67.3636 89.4389 67.3636Z" fill="#A78BFA" />
	<path d="M205.173 164.864L206.858 167.837L208.558 164.864H210.184L207.803 168.682L210.204 172.5H208.578L206.858 169.646L205.143 172.5H203.512L205.888 168.682L203.542 164.864H205.173Z" fill="#A78BFA" />
	<path d="M104.333 160.5C104.333 161.973 105.527 163.167 107 163.167C108.473 163.167 109.667 161.973 109.667 160.5C109.667 159.027 108.473 157.833 107 157.833C105.527 157.833 104.333 159.027 104.333 160.5ZM178.333 86.5C178.333 87.9728 179.527 89.1667 181 89.1667C182.473 89.1667 183.667 87.9728 183.667 86.5C183.667 85.0272 182.473 83.8333 181 83.8333C179.527 83.8333 178.333 85.0272 178.333 86.5ZM107.354 160.854L181.354 86.8536L180.646 86.1464L106.646 160.146L107.354 160.854Z" fill="#F87171" />
	<path d="M122.432 163.274C122.432 162.028 122.596 160.881 122.924 159.834C123.252 158.786 123.731 157.82 124.361 156.935H125.723C125.478 157.263 125.249 157.666 125.037 158.143C124.825 158.621 124.639 159.144 124.48 159.714C124.321 160.281 124.197 160.87 124.107 161.479C124.018 162.086 123.973 162.684 123.973 163.274C123.973 164.063 124.051 164.862 124.207 165.67C124.362 166.479 124.573 167.23 124.838 167.923C125.103 168.615 125.398 169.18 125.723 169.618H124.361C123.731 168.733 123.252 167.767 122.924 166.719C122.596 165.672 122.432 164.524 122.432 163.274ZM128.464 159.864L130.149 162.837L131.849 159.864H133.475L131.094 163.682L133.495 167.5H131.869L130.149 164.646L128.434 167.5H126.803L129.18 163.682L126.833 159.864H128.464ZM136.125 169.25V164.328H136.08L134.544 165.332V164.194L136.15 163.145H137.298V169.25H136.125ZM141.351 166.108L141.277 166.65C141.227 167.048 141.142 167.462 141.023 167.893C140.907 168.327 140.786 168.73 140.66 169.101C140.538 169.472 140.436 169.767 140.357 169.986H139.303C139.346 169.78 139.406 169.502 139.482 169.151C139.558 168.803 139.633 168.413 139.706 167.982C139.779 167.551 139.833 167.112 139.87 166.665L139.919 166.108H141.351ZM147.931 170.364C147.709 170.364 147.507 170.345 147.325 170.309C147.142 170.276 147.006 170.239 146.917 170.2L147.275 168.982C147.547 169.054 147.789 169.086 148.001 169.076C148.213 169.066 148.4 168.987 148.562 168.837C148.728 168.688 148.874 168.445 149 168.107L149.184 167.599L146.39 159.864H147.981L149.915 165.79H149.994L151.928 159.864H153.524L150.377 168.519C150.231 168.917 150.046 169.253 149.82 169.528C149.595 169.807 149.326 170.016 149.015 170.155C148.703 170.294 148.342 170.364 147.931 170.364ZM156.045 169.25V164.328H156L154.464 165.332V164.194L156.07 163.145H157.218V169.25H156.045ZM162.196 163.274C162.196 164.524 162.032 165.672 161.704 166.719C161.376 167.767 160.897 168.733 160.267 169.618H158.905C159.15 169.29 159.379 168.887 159.591 168.41C159.803 167.933 159.988 167.411 160.148 166.844C160.307 166.274 160.431 165.684 160.52 165.074C160.61 164.464 160.655 163.864 160.655 163.274C160.655 162.489 160.577 161.692 160.421 160.883C160.265 160.074 160.055 159.323 159.79 158.631C159.524 157.938 159.229 157.373 158.905 156.935H160.267C160.897 157.82 161.376 158.786 161.704 159.834C162.032 160.881 162.196 162.028 162.196 163.274Z" fill="#F87171" />
	<path d="M122.432 85.2741C122.432 84.0279 122.596 82.8812 122.924 81.8338C123.252 80.7865 123.731 79.8203 124.361 78.9354H125.723C125.478 79.2635 125.249 79.6662 125.037 80.1435C124.825 80.6207 124.639 81.1444 124.48 81.7145C124.321 82.2812 124.197 82.8696 124.107 83.4794C124.018 84.0859 123.973 84.6842 123.973 85.2741C123.973 86.063 124.051 86.8617 124.207 87.6705C124.362 88.4792 124.573 89.2299 124.838 89.9226C125.103 90.6153 125.398 91.1804 125.723 91.6179H124.361C123.731 90.733 123.252 89.7668 122.924 88.7195C122.596 87.6721 122.432 86.5237 122.432 85.2741ZM128.464 81.8636L130.149 84.8366L131.849 81.8636H133.475L131.094 85.6818L133.495 89.5H131.869L130.149 86.6463L128.434 89.5H126.803L129.18 85.6818L126.833 81.8636H128.464ZM134.668 91.25V90.3651L137.03 88.3416C137.245 88.156 137.427 87.9886 137.577 87.8395C137.726 87.6903 137.838 87.5445 137.915 87.402C137.994 87.2562 138.034 87.1004 138.034 86.9347C138.034 86.6562 137.925 86.4375 137.706 86.2784C137.49 86.116 137.224 86.0348 136.905 86.0348C136.567 86.0348 136.296 86.1226 136.09 86.2983C135.885 86.474 135.782 86.7093 135.782 87.0043H134.604C134.604 86.4143 134.821 85.9437 135.255 85.5923C135.689 85.241 136.246 85.0653 136.925 85.0653C137.383 85.0653 137.782 85.1465 138.123 85.3089C138.465 85.4714 138.73 85.6918 138.919 85.9702C139.111 86.2486 139.207 86.5634 139.207 86.9148C139.207 87.1932 139.151 87.4517 139.038 87.6903C138.925 87.929 138.75 88.1709 138.511 88.4162C138.273 88.6615 137.966 88.9332 137.591 89.2315L136.438 90.206V90.2507H139.351V91.25H134.668ZM142.841 88.108L142.767 88.6499C142.717 89.0476 142.633 89.4619 142.513 89.8928C142.397 90.3269 142.276 90.7296 142.15 91.1009C142.028 91.4721 141.927 91.767 141.847 91.9858H140.793C140.836 91.7803 140.896 91.5019 140.972 91.1506C141.048 90.8026 141.123 90.4131 141.196 89.9822C141.269 89.5514 141.323 89.1122 141.36 88.6648L141.41 88.108H142.841ZM149.421 92.3636C149.199 92.3636 148.997 92.3454 148.815 92.3089C148.633 92.2758 148.497 92.2393 148.407 92.1996L148.765 90.9815C149.037 91.0545 149.279 91.0859 149.491 91.076C149.703 91.0661 149.89 90.9865 150.053 90.8374C150.218 90.6882 150.364 90.4446 150.49 90.1065L150.674 89.5994L147.88 81.8636H149.471L151.405 87.7898H151.485L153.419 81.8636H155.014L151.867 90.5192C151.722 90.9169 151.536 91.2533 151.311 91.5284C151.085 91.8068 150.817 92.0156 150.505 92.1548C150.194 92.294 149.832 92.3636 149.421 92.3636ZM156.078 91.25V90.3651L158.44 88.3416C158.655 88.156 158.838 87.9886 158.987 87.8395C159.136 87.6903 159.249 87.5445 159.325 87.402C159.404 87.2562 159.444 87.1004 159.444 86.9347C159.444 86.6562 159.335 86.4375 159.116 86.2784C158.901 86.116 158.634 86.0348 158.316 86.0348C157.977 86.0348 157.706 86.1226 157.5 86.2983C157.295 86.474 157.192 86.7093 157.192 87.0043H156.014C156.014 86.4143 156.231 85.9437 156.665 85.5923C157.099 85.241 157.656 85.0653 158.335 85.0653C158.793 85.0653 159.192 85.1465 159.534 85.3089C159.875 85.4714 160.14 85.6918 160.329 85.9702C160.521 86.2486 160.617 86.5634 160.617 86.9148C160.617 87.1932 160.561 87.4517 160.448 87.6903C160.336 87.929 160.16 88.1709 159.921 88.4162C159.683 88.6615 159.376 88.9332 159.002 89.2315L157.848 90.206V90.2507H160.762V91.25H156.078ZM165.176 85.2741C165.176 86.5237 165.012 87.6721 164.684 88.7195C164.356 89.7668 163.877 90.733 163.247 91.6179H161.885C162.13 91.2898 162.359 90.8871 162.571 90.4098C162.783 89.9325 162.969 89.4105 163.128 88.8438C163.287 88.2737 163.411 87.6837 163.501 87.0739C163.59 86.464 163.635 85.8641 163.635 85.2741C163.635 84.4886 163.557 83.6915 163.401 82.8828C163.246 82.0741 163.035 81.3234 162.77 80.6307C162.505 79.938 162.21 79.3729 161.885 78.9354H163.247C163.877 79.8203 164.356 80.7865 164.684 81.8338C165.012 82.8812 165.176 84.0279 165.176 85.2741Z" fill="#F87171" />
</svg>