<svg class="tab" data-tab="1" width="272" height="258" viewBox="0 0 272 258" fill="none" xmlns="http://www.w3.org/2000/svg">
	<g clip-path="url(#clip0_6130_69912)">
		<path d="M88 191L90.8868 186L85.1133 186L88 191ZM88 31L85.1132 36L90.8868 36L88 31ZM88.5 186.5L88.5 35.5L87.5 35.5L87.5 186.5L88.5 186.5Z" fill="#A78BFA" />
		<path d="M48.1367 207L53.7135 205.506L49.631 201.423L48.1367 207ZM102.137 153L96.5599 154.494L100.642 158.577L102.137 153ZM51.6722 204.172L99.3083 156.536L98.6012 155.828L50.9651 203.464L51.6722 204.172Z" fill="#A78BFA" />
		<path d="M64 167L69 169.887V164.113L64 167ZM224 167L219 164.113V169.887L224 167ZM68.5 167.5H219.5V166.5H68.5V167.5Z" fill="#A78BFA" />
		<path d="M96.3402 46V44.9808L100.477 39.7259V39.6562H96.4744V38.3636H102.331V39.4474L98.3537 44.6378V44.7074H102.47V46H96.3402Z" fill="#A78BFA" />
		<path d="M58.1726 214.364L59.858 217.337L61.5582 214.364H63.1839L60.8026 218.182L63.2038 222H61.5781L59.858 219.146L58.1428 222H56.5121L58.8885 218.182L56.5419 214.364H58.1726Z" fill="#A78BFA" />
		<path d="M212.939 156.864C212.717 156.864 212.515 156.845 212.332 156.809C212.15 156.776 212.014 156.739 211.925 156.7L212.283 155.482C212.554 155.554 212.796 155.586 213.009 155.576C213.221 155.566 213.408 155.487 213.57 155.337C213.736 155.188 213.882 154.945 214.008 154.607L214.192 154.099L211.398 146.364H212.989L214.923 152.29H215.002L216.936 146.364H218.532L215.385 155.019C215.239 155.417 215.054 155.753 214.828 156.028C214.603 156.307 214.334 156.516 214.023 156.655C213.711 156.794 213.35 156.864 212.939 156.864Z" fill="#A78BFA" />
		<path d="M133.333 182C133.333 183.473 134.527 184.667 136 184.667C137.473 184.667 138.667 183.473 138.667 182C138.667 180.527 137.473 179.333 136 179.333C134.527 179.333 133.333 180.527 133.333 182ZM169.333 117C169.333 118.473 170.527 119.667 172 119.667C173.473 119.667 174.667 118.473 174.667 117C174.667 115.527 173.473 114.333 172 114.333C170.527 114.333 169.333 115.527 169.333 117ZM136.437 182.242L172.437 117.242L171.563 116.758L135.563 181.758L136.437 182.242Z" fill="#F87171" />
		<path d="M107.432 192.774C107.432 191.528 107.596 190.381 107.924 189.334C108.252 188.286 108.731 187.32 109.361 186.435H110.723C110.478 186.763 110.249 187.166 110.037 187.643C109.825 188.121 109.639 188.644 109.48 189.214C109.321 189.781 109.197 190.37 109.107 190.979C109.018 191.586 108.973 192.184 108.973 192.774C108.973 193.563 109.051 194.362 109.207 195.17C109.362 195.979 109.573 196.73 109.838 197.423C110.103 198.115 110.398 198.68 110.723 199.118H109.361C108.731 198.233 108.252 197.267 107.924 196.219C107.596 195.172 107.432 194.024 107.432 192.774ZM113.464 189.364L115.149 192.337L116.849 189.364H118.475L116.094 193.182L118.495 197H116.869L115.149 194.146L113.434 197H111.803L114.18 193.182L111.833 189.364H113.464ZM121.125 198.75V193.828H121.08L119.544 194.832V193.694L121.15 192.645H122.298V198.75H121.125ZM126.351 195.608L126.277 196.15C126.227 196.548 126.142 196.962 126.023 197.393C125.907 197.827 125.786 198.23 125.66 198.601C125.538 198.972 125.436 199.267 125.357 199.486H124.303C124.346 199.28 124.406 199.002 124.482 198.651C124.558 198.303 124.633 197.913 124.706 197.482C124.779 197.051 124.833 196.612 124.87 196.165L124.919 195.608H126.351ZM132.931 199.864C132.709 199.864 132.507 199.845 132.325 199.809C132.142 199.776 132.006 199.739 131.917 199.7L132.275 198.482C132.547 198.554 132.789 198.586 133.001 198.576C133.213 198.566 133.4 198.487 133.562 198.337C133.728 198.188 133.874 197.945 134 197.607L134.184 197.099L131.39 189.364H132.981L134.915 195.29H134.994L136.928 189.364H138.524L135.377 198.019C135.231 198.417 135.046 198.753 134.82 199.028C134.595 199.307 134.326 199.516 134.015 199.655C133.703 199.794 133.342 199.864 132.931 199.864ZM141.045 198.75V193.828H141L139.464 194.832V193.694L141.07 192.645H142.218V198.75H141.045ZM146.271 195.608L146.197 196.15C146.147 196.548 146.062 196.962 145.943 197.393C145.827 197.827 145.706 198.23 145.58 198.601C145.457 198.972 145.356 199.267 145.277 199.486H144.223C144.266 199.28 144.326 199.002 144.402 198.651C144.478 198.303 144.553 197.913 144.626 197.482C144.698 197.051 144.753 196.612 144.79 196.165L144.839 195.608H146.271ZM151.752 197V195.981L155.889 190.726V190.656H151.887V189.364H157.743V190.447L153.766 195.638V195.707H157.882V197H151.752ZM160.76 198.75V193.828H160.715L159.179 194.832V193.694L160.784 192.645H161.933V198.75H160.76ZM166.911 192.774C166.911 194.024 166.747 195.172 166.419 196.219C166.09 197.267 165.611 198.233 164.982 199.118H163.619C163.865 198.79 164.093 198.387 164.306 197.91C164.518 197.433 164.703 196.911 164.862 196.344C165.021 195.774 165.146 195.184 165.235 194.574C165.325 193.964 165.369 193.364 165.369 192.774C165.369 191.989 165.292 191.192 165.136 190.383C164.98 189.574 164.77 188.823 164.504 188.131C164.239 187.438 163.944 186.873 163.619 186.435H164.982C165.611 187.32 166.09 188.286 166.419 189.334C166.747 190.381 166.911 191.528 166.911 192.774Z" fill="#F87171" />
		<path d="M139.432 101.774C139.432 100.528 139.596 99.3812 139.924 98.3338C140.252 97.2865 140.731 96.3203 141.361 95.4354H142.723C142.478 95.7635 142.249 96.1662 142.037 96.6435C141.825 97.1207 141.639 97.6444 141.48 98.2145C141.321 98.7812 141.197 99.3696 141.107 99.9794C141.018 100.586 140.973 101.184 140.973 101.774C140.973 102.563 141.051 103.362 141.207 104.17C141.362 104.979 141.573 105.73 141.838 106.423C142.103 107.115 142.398 107.68 142.723 108.118H141.361C140.731 107.233 140.252 106.267 139.924 105.219C139.596 104.172 139.432 103.024 139.432 101.774ZM145.464 98.3636L147.149 101.337L148.849 98.3636H150.475L148.094 102.182L150.495 106H148.869L147.149 103.146L145.434 106H143.803L146.18 102.182L143.833 98.3636H145.464ZM151.668 107.75V106.865L154.03 104.842C154.245 104.656 154.427 104.489 154.577 104.339C154.726 104.19 154.838 104.045 154.915 103.902C154.994 103.756 155.034 103.6 155.034 103.435C155.034 103.156 154.925 102.937 154.706 102.778C154.49 102.616 154.224 102.535 153.905 102.535C153.567 102.535 153.296 102.623 153.09 102.798C152.885 102.974 152.782 103.209 152.782 103.504H151.604C151.604 102.914 151.821 102.444 152.255 102.092C152.689 101.741 153.246 101.565 153.925 101.565C154.383 101.565 154.782 101.647 155.123 101.809C155.465 101.971 155.73 102.192 155.919 102.47C156.111 102.749 156.207 103.063 156.207 103.415C156.207 103.693 156.151 103.952 156.038 104.19C155.925 104.429 155.75 104.671 155.511 104.916C155.273 105.161 154.966 105.433 154.591 105.732L153.438 106.706V106.751H156.351V107.75H151.668ZM159.841 104.608L159.767 105.15C159.717 105.548 159.633 105.962 159.513 106.393C159.397 106.827 159.276 107.23 159.15 107.601C159.028 107.972 158.927 108.267 158.847 108.486H157.793C157.836 108.28 157.896 108.002 157.972 107.651C158.048 107.303 158.123 106.913 158.196 106.482C158.269 106.051 158.323 105.612 158.36 105.165L158.41 104.608H159.841ZM166.421 108.864C166.199 108.864 165.997 108.845 165.815 108.809C165.633 108.776 165.497 108.739 165.407 108.7L165.765 107.482C166.037 107.554 166.279 107.586 166.491 107.576C166.703 107.566 166.89 107.487 167.053 107.337C167.218 107.188 167.364 106.945 167.49 106.607L167.674 106.099L164.88 98.3636H166.471L168.405 104.29H168.485L170.419 98.3636H172.014L168.867 107.019C168.722 107.417 168.536 107.753 168.311 108.028C168.085 108.307 167.817 108.516 167.505 108.655C167.194 108.794 166.832 108.864 166.421 108.864ZM173.078 107.75V106.865L175.44 104.842C175.655 104.656 175.838 104.489 175.987 104.339C176.136 104.19 176.249 104.045 176.325 103.902C176.404 103.756 176.444 103.6 176.444 103.435C176.444 103.156 176.335 102.937 176.116 102.778C175.901 102.616 175.634 102.535 175.316 102.535C174.977 102.535 174.706 102.623 174.5 102.798C174.295 102.974 174.192 103.209 174.192 103.504H173.014C173.014 102.914 173.231 102.444 173.665 102.092C174.099 101.741 174.656 101.565 175.335 101.565C175.793 101.565 176.192 101.647 176.534 101.809C176.875 101.971 177.14 102.192 177.329 102.47C177.521 102.749 177.617 103.063 177.617 103.415C177.617 103.693 177.561 103.952 177.448 104.19C177.336 104.429 177.16 104.671 176.921 104.916C176.683 105.161 176.376 105.433 176.002 105.732L174.848 106.706V106.751H177.762V107.75H173.078ZM181.252 104.608L181.177 105.15C181.127 105.548 181.043 105.962 180.923 106.393C180.807 106.827 180.686 107.23 180.561 107.601C180.438 107.972 180.337 108.267 180.257 108.486H179.203C179.246 108.28 179.306 108.002 179.382 107.651C179.459 107.303 179.533 106.913 179.606 106.482C179.679 106.051 179.734 105.612 179.77 105.165L179.82 104.608H181.252ZM186.733 106V104.981L190.869 99.7259V99.6562H186.867V98.3636H192.724V99.4474L188.746 104.638V104.707H192.863V106H186.733ZM194.283 107.75V106.865L196.645 104.842C196.86 104.656 197.043 104.489 197.192 104.339C197.341 104.19 197.454 104.045 197.53 103.902C197.609 103.756 197.649 103.6 197.649 103.435C197.649 103.156 197.54 102.937 197.321 102.778C197.106 102.616 196.839 102.535 196.521 102.535C196.183 102.535 195.911 102.623 195.705 102.798C195.5 102.974 195.397 103.209 195.397 103.504H194.219C194.219 102.914 194.436 102.444 194.87 102.092C195.304 101.741 195.861 101.565 196.54 101.565C196.998 101.565 197.397 101.647 197.739 101.809C198.08 101.971 198.345 102.192 198.534 102.47C198.726 102.749 198.822 103.063 198.822 103.415C198.822 103.693 198.766 103.952 198.653 104.19C198.541 104.429 198.365 104.671 198.126 104.916C197.888 105.161 197.581 105.433 197.207 105.732L196.053 106.706V106.751H198.967V107.75H194.283ZM203.381 101.774C203.381 103.024 203.217 104.172 202.889 105.219C202.561 106.267 202.082 107.233 201.452 108.118H200.09C200.335 107.79 200.564 107.387 200.776 106.91C200.988 106.433 201.174 105.911 201.333 105.344C201.492 104.774 201.616 104.184 201.706 103.574C201.795 102.964 201.84 102.364 201.84 101.774C201.84 100.989 201.762 100.192 201.607 99.3828C201.451 98.5741 201.24 97.8234 200.975 97.1307C200.71 96.438 200.415 95.8729 200.09 95.4354H201.452C202.082 96.3203 202.561 97.2865 202.889 98.3338C203.217 99.3812 203.381 100.528 203.381 101.774Z" fill="#F87171" />
	</g>
	<defs>
		<clipPath id="clip0_6130_69912">
			<rect width="176" height="196" fill="white" transform="translate(48 31)" />
		</clipPath>
	</defs>
</svg>