<svg class="tab" data-tab="2" width="272" height="200" viewBox="0 0 272 200" fill="none" xmlns="http://www.w3.org/2000/svg">
	<g clip-path="url(#clip0_6130_69913)">
		<path d="M178.345 55.8799L171.723 60.2939L160.688 58.0869L154.067 55.8799L145.238 58.0869L138.617 55.8799L143.031 47.0516H151.859L160.511 42.7258C167.183 46.0253 173.22 50.4791 178.345 55.8799Z" fill="#DDD6FE" />
		<path d="M127.582 47.0516L125.375 53.6729L118.754 55.8799L112.132 66.9152L101.097 73.5364L85.6478 75.7434V82.3647L90.0618 86.7787V95.607L83.441 91.1927L76.8197 86.7787L72.9795 75.2359C79.5895 59.4839 92.225 47.0316 108.072 40.6511L114.34 44.8446L127.582 47.0516Z" fill="#DDD6FE" />
		<path d="M131.997 108.849L129.79 119.884L120.961 128.712V135.334L112.133 141.955V152.99L105.512 150.783L101.098 139.748V117.677L90.0624 115.47L85.6484 106.642V100.021L90.0624 95.6066L96.6837 88.9854L101.098 97.8136H116.547L123.168 108.849H131.997Z" fill="#DDD6FE" />
		<path d="M187.834 68.747C199.883 90.2416 198.51 116.746 184.303 136.879L178.344 130.92V122.091L173.93 113.263L169.516 104.435V95.6066L162.895 91.1926L154.066 93.3996L138.617 86.7783L136.41 71.329L143.031 64.7078H156.274L160.688 71.329L173.93 73.536L187.172 69.122L187.834 68.747Z" fill="#DDD6FE" />
		<path d="M145.238 58.0872L154.066 55.8802L160.687 58.0872L171.723 60.2942L178.344 55.8802C182.041 59.7492 185.23 64.0728 187.834 68.7473L187.172 69.1225L173.93 73.5365L160.688 71.3295L156.274 64.7083H143.031L136.41 71.3295L138.617 86.7788L154.066 93.4001L162.895 91.1931L169.516 95.6071V104.435L173.93 113.264L178.344 122.092V130.92L184.303 136.879C163.921 165.761 123.984 172.649 95.1048 152.267C70.5777 134.954 61.3765 102.923 72.979 75.236L76.8193 86.7788L83.4405 91.1928L90.0618 95.6068L85.6475 100.021V106.642L90.0615 115.471L101.097 117.678V139.748L105.511 150.783L112.132 152.99V141.955L120.96 135.334V128.713L129.789 119.884L131.996 108.849H123.167L116.546 97.8138H101.097L96.6828 88.9855L90.0618 95.6068L90.0615 86.7785L85.6475 82.3648V75.7435L101.097 73.5365L112.132 66.9153L118.753 55.88L125.375 53.673L127.582 47.0517L114.339 44.8447L108.071 40.6512C125.044 33.8159 144.13 34.5707 160.511 42.726L151.859 47.0517H143.031L138.617 55.88L145.238 58.0872Z" fill="#F5F3FF" />
		<circle cx="132" cy="100" r="63.5" stroke="#DDD6FE" />
		<path d="M99.3333 113.5C99.3333 114.973 100.527 116.167 102 116.167C103.473 116.167 104.667 114.973 104.667 113.5C104.667 112.027 103.473 110.833 102 110.833C100.527 110.833 99.3333 112.027 99.3333 113.5ZM174.833 100.5C174.833 101.973 176.027 103.167 177.5 103.167C178.973 103.167 180.167 101.973 180.167 100.5C180.167 99.0272 178.973 97.8333 177.5 97.8333C176.027 97.8333 174.833 99.0272 174.833 100.5ZM101.927 113.995L108.905 115.03L109.052 114.041L102.073 113.005L101.927 113.995ZM108.905 115.03C132.802 118.577 157.184 113.583 177.762 100.926L177.238 100.074C156.861 112.608 132.716 117.553 109.052 114.041L108.905 115.03Z" fill="#F87171" />
		<path d="M178 86.625C179.381 86.625 180.5 85.5057 180.5 84.125C180.5 82.7443 179.381 81.625 178 81.625C176.619 81.625 175.5 82.7443 175.5 84.125C175.5 85.5057 176.619 86.625 178 86.625Z" stroke="#F87171" stroke-linecap="round" stroke-linejoin="round" />
		<path d="M184.25 84.125C184.25 89.75 178 94.125 178 94.125C178 94.125 171.75 89.75 171.75 84.125C171.75 82.4674 172.408 80.8777 173.581 79.7056C174.753 78.5335 176.342 77.875 178 77.875C179.658 77.875 181.247 78.5335 182.419 79.7056C183.592 80.8777 184.25 82.4674 184.25 84.125V84.125Z" stroke="#F87171" stroke-linecap="round" stroke-linejoin="round" />
		<path d="M102 99.625C103.381 99.625 104.5 98.5057 104.5 97.125C104.5 95.7443 103.381 94.625 102 94.625C100.619 94.625 99.5 95.7443 99.5 97.125C99.5 98.5057 100.619 99.625 102 99.625Z" stroke="#F87171" stroke-linecap="round" stroke-linejoin="round" />
		<path d="M108.25 97.125C108.25 102.75 102 107.125 102 107.125C102 107.125 95.75 102.75 95.75 97.125C95.75 95.4674 96.4085 93.8777 97.5806 92.7056C98.7527 91.5335 100.342 90.875 102 90.875C103.658 90.875 105.247 91.5335 106.419 92.7056C107.592 93.8777 108.25 95.4674 108.25 97.125V97.125Z" stroke="#F87171" stroke-linecap="round" stroke-linejoin="round" />
	</g>
	<defs>
		<clipPath id="clip0_6130_69913">
			<rect width="128" height="128" fill="white" transform="translate(68 36)" />
		</clipPath>
	</defs>
</svg>